<?xml version="1.0" encoding="UTF-8"?>
<svg id="Layer_1" data-name="Layer 1" xmlns="http://www.w3.org/2000/svg" viewBox="0 0 33.45 33.9">
  <defs>
    <style>
      .cls-1 {
        fill: #fff;
      }
    </style>
  </defs>
  <path class="cls-1" d="M16.7,16.45c-2.4,0-4.37-.77-5.9-2.3s-2.3-3.5-2.3-5.9,.77-4.42,2.3-5.95c1.53-1.53,3.5-2.3,5.9-2.3s4.38,.77,5.92,2.3c1.55,1.53,2.33,3.52,2.33,5.95s-.77,4.37-2.33,5.9c-1.55,1.53-3.52,2.3-5.92,2.3ZM0,33.9v-5.45c0-1.37,.35-2.56,1.05-3.58,.7-1.02,1.62-1.79,2.75-2.32,2.27-1.03,4.45-1.8,6.55-2.3,2.1-.5,4.22-.75,6.35-.75s4.29,.26,6.38,.77c2.08,.52,4.24,1.28,6.47,2.27,1.17,.5,2.11,1.26,2.83,2.27,.72,1.02,1.08,2.23,1.08,3.62v5.45H0Z"/>
</svg>