<?xml version="1.0" encoding="utf-8"?>
<!-- Generator: Adobe Illustrator 27.0.0, SVG Export Plug-In . SVG Version: 6.00 Build 0)  -->
<svg version="1.1" id="Layer_1" xmlns="http://www.w3.org/2000/svg" xmlns:xlink="http://www.w3.org/1999/xlink" x="0px" y="0px"
	 viewBox="0 0 48 48" style="enable-background:new 0 0 48 48;" xml:space="preserve">
<style type="text/css">
	.st0{fill:#FFFFFF;}
</style>
<path class="st0" d="M39.8,42.8L26.5,29.5c-1,0.8-2.1,1.4-3.5,1.9s-2.8,0.7-4.2,0.7c-3.8,0-6.9-1.3-9.5-3.9s-3.9-5.7-3.9-9.4
	s1.3-6.8,3.9-9.4s5.7-3.9,9.4-3.9c3.7,0,6.8,1.3,9.4,3.9s3.9,5.7,3.9,9.4c0,1.5-0.2,2.9-0.6,4.1s-1.1,2.5-2,3.7l13.4,13.2L39.8,42.8
	z M18.7,28c2.6,0,4.8-0.9,6.5-2.7c1.8-1.8,2.7-4,2.7-6.6c0-2.6-0.9-4.8-2.7-6.6s-4-2.7-6.5-2.7c-2.6,0-4.9,0.9-6.7,2.7
	s-2.7,4-2.7,6.6s0.9,4.8,2.7,6.6S16.1,28,18.7,28z"/>
</svg>
