<svg width="33" height="30" viewBox="0 0 33 30" fill="none" xmlns="http://www.w3.org/2000/svg">
<path d="M18.026 6.89194L17.114 11.5159C16.922 12.4599 17.178 13.4359 17.786 14.1719C18.394 14.9079 19.29 15.3399 20.25 15.3399H29.05V17.0679L24.938 26.5399H11.994C11.706 26.5399 11.45 26.2839 11.45 25.9959V13.4519L18.026 6.89194ZM19.45 0.939941L9.194 11.1959C8.586 11.8039 8.25 12.6199 8.25 13.4679V25.9959C8.25 28.0599 9.93 29.7399 11.994 29.7399H24.954C26.09 29.7399 27.13 29.1479 27.706 28.1879L31.978 18.3479C32.154 17.9479 32.25 17.5159 32.25 17.0679V15.3399C32.25 13.5799 30.81 12.1399 29.05 12.1399H20.25L21.722 4.69994C21.802 4.34794 21.754 3.96394 21.594 3.64394C21.226 2.92394 20.762 2.26794 20.186 1.69194L19.45 0.939941ZM3.45 12.1399H0.25V29.7399H3.45C4.33 29.7399 5.05 29.0199 5.05 28.1399V13.7399C5.05 12.8599 4.33 12.1399 3.45 12.1399Z" fill="#FFFCF9"/>
</svg>
