<svg width="24" height="24" viewBox="0 0 24 24" fill="none" xmlns="http://www.w3.org/2000/svg">
<g clip-path="url(#clip0_403_1922)">
<path d="M13.4899 5.48047C14.5899 5.48047 15.4899 4.58047 15.4899 3.48047C15.4899 2.38047 14.5899 1.48047 13.4899 1.48047C12.3899 1.48047 11.4899 2.38047 11.4899 3.48047C11.4899 4.58047 12.3899 5.48047 13.4899 5.48047ZM9.88989 19.3805L10.8899 14.9805L12.9899 16.9805V22.9805H14.9899V15.4805L12.8899 13.4805L13.4899 10.4805C14.7899 11.9805 16.7899 12.9805 18.9899 12.9805V10.9805C17.0899 10.9805 15.4899 9.98047 14.6899 8.58047L13.6899 6.98047C13.2899 6.38047 12.6899 5.98047 11.9899 5.98047C11.6899 5.98047 11.4899 6.08047 11.1899 6.08047L5.98989 8.28047V12.9805H7.98989V9.58047L9.78989 8.88047L8.18989 16.9805L3.28989 15.9805L2.88989 17.9805L9.88989 19.3805Z" fill="#2D2D2D"/>
</g>
<defs>
<clipPath id="clip0_403_1922">
<rect width="24" height="24" fill="white"/>
</clipPath>
</defs>
</svg>
